<?xml version="1.0" encoding="UTF-8" standalone="no"?>
<!-- Created with Inkscape (http://www.inkscape.org/) -->

<svg
   xmlns="http://www.w3.org/2000/svg"
   version="1.1"
   width="100%"
   height="100%"
   viewBox="0 0 334 28"
   id="svg2997"
   onload="init()">
  <defs
     id="defs2999" />

<script><![CDATA[
var color1 = 'ffffff';
var color2 = 'fe8a00';
var animate = false;

var href = document.defaultView.location.href;
var p;
if ( -1 != href.indexOf('?') ) {
  var params = href.split('?')[1].split('&');
  for ( var i = 0, l = params.length; i < l; i++ ) {
    p = params[i].split('=');
    if ( p[0] == 'color1' ) color1 = unescape(p[1]);
    else if ( p[0] == 'color2' ) color2 = unescape(p[1]);
    else if ( p[0] == 'animate' ) animate = true;
  }
}

function init () {
  var el, i, l;

  el = document.getElementsByClassName('color1');
  for ( i = 0, l = el.length; i < l; i ++ ) {
    el[i].style.fill = '#' + color1;
  }

  el = document.getElementsByClassName('color2');
  for ( i = 0, l = el.length; i < l; i ++ ) {
    el[i].style.fill = '#' + color2;
  }

  if ( animate ) addRotateTransform('gear', 10, 1);
}

function addRotateTransform (id, speed, direction) {
  var el = document.getElementById(id);
  var transform = document.createElementNS('http://www.w3.org/2000/svg', 'animateTransform');

  var bb = el.getBBox();
  var cx = bb.x + bb.width / 2;
  var cy = bb.y + bb.height / 2;

  transform.setAttributeNS(null, 'attributeName', 'transform');
  transform.setAttributeNS(null, 'attributeType', 'XML');
  transform.setAttributeNS(null, 'type', 'rotate');
  transform.setAttributeNS(null, 'dur', speed + 's');
  transform.setAttributeNS(null, 'repeatCount', 'indefinite');
  transform.setAttributeNS(null, 'from', '0 ' + cx + ' ' + cy);
  transform.setAttributeNS(null, 'to', 360 * direction + ' ' + cx + ' ' + cy);

  el.appendChild(transform);
  transform.beginElement();
}
]]></script>

  <g
     id="layer1">
    <path
       d="m 4.04,19.720001 -4.04,1.08 0,0.72 c 0,4.12 2.16,5.84 6.56,5.84 l 6.08,0 c 4.39999,0 6.76,-1.84 6.76,-5.92 l 0,-3.88 c 0,-4.12 -1.96001,-5.92 -6.36,-5.92 l -5.96,0 c -2.4,0 -3.04,-0.84 -3.04,-2.8400004 l 0,-2.24 c 0,-2 0.64,-2.84 3.04,-2.84 l 5.24,0 c 2.39999,0 3.04,0.84 3.04,2.84 l 0,1 4.04,-1.08 0,-0.64 C 19.4,1.7600006 17.23999,6.1035121e-7 12.84,6.1035121e-7 l -6.08,0 C 2.36,6.1035121e-7 0,1.8400006 0,5.9600006 l 0,3.36 c 0,4.0800004 1.96,5.9600004 6.36,5.9600004 l 5.96,0 c 2.39999,0 3.04,0.84 3.04,2.84 l 0,2.64 c 0,2 -0.64001,2.84 -3.04,2.84 l -5.24,0 c -2.4,0 -3.04,-0.84 -3.04,-2.84 l 0,-1.04"
       id="path4556"
       class="color1"
       style="fill:#ffffff;fill-opacity:1;stroke:none;" />
    <path
       d="m 45.59975,19.720001 -4.04,-1.2 0,2.24 c 0,2 -0.64,2.84 -3.04,2.84 l -5.52,0 c -2.4,0 -3.08,-0.84 -3.08,-2.84 l 0,-14.2000004 c 0,-2 0.68,-2.84 3.08,-2.84 l 5.52,0 c 2.4,0 3.04,0.84 3.04,2.84 l 0,2 4.04,-1.08 0,-1.64 c 0,-4.08 -2.16,-5.83999998964856 -6.56,-5.83999998964856 l -6.6,0 c -4.39999,0 -6.56,1.75999998964856 -6.56,5.83999998964856 l 0,15.6800004 c 0,4.12 2.16001,5.84 6.56,5.84 l 6.6,0 c 4.4,0 6.56,-1.72 6.56,-5.84 l 0,-1.8"
       id="path4558"
       class="color1"
       style="fill:#ffffff;fill-opacity:1;stroke:none;" />
    <path
       d="m 71.599507,27.360001 0,-6.28 -4.32,-6 c 2.919997,-0.44 4.32,-2.28 4.32,-5.2400004 l 0,-4 c 0,-4.08 -2.160004,-5.83999998964834 -6.56,-5.83999998964834 l -12.679997,0 0,27.36000038964834 4.04,0 0,-11.36 6.799997,0 4.36,6.08 0,5.28 4.04,0 m -15.199997,-15 0,-8.6400004 8.119997,0 c 2.399998,0 3.04,0.84 3.04,2.84 l 0,2.96 c 0,2.0000004 -0.640002,2.8400004 -3.04,2.8400004 l -8.119997,0"
       id="path4560"
       class="color1"
       style="fill:#ffffff;fill-opacity:1;stroke:none;" />
    <path
       d="m 125.99902,27.360001 0,-3.76 -15.44,0 0,-23.60000038964834 -4.04,0 0,27.36000038964834 19.48,0"
       id="path4562"
       class="color1"
       style="fill:#ffffff;fill-opacity:1;stroke:none;" />
    <path
       d="m 151.99878,27.360001 0,-3.76 -15.44,0 0,-23.60000038964834 -4.04001,0 0,27.36000038964834 19.48001,0"
       id="path4564"
       class="color1"
       style="fill:#ffffff;fill-opacity:1;stroke:none;" />
    <path
       d="m 158.27854,27.360001 12.68,0 c 4.39999,0 6.56,-1.72 6.56,-5.84 l 0,-3.44 c 0,-2.4 -0.92001,-4.08 -3.08,-4.64 2.15999,-0.6 3.08,-2.28 3.08,-4.6400004 l 0,-2.96 c 0,-4.12 -2.16001,-5.83999998964856 -6.56,-5.83999998964856 l -12.68,0 0,27.36000038964856 m 4.04,-15.72 0,-7.9200004 8.08,0 c 2.39998,0 3.08,0.84 3.08,2.84 l 0,2.16 c 0,2.0000004 -0.68002,2.9200004 -3.08,2.9200004 l -8.08,0 m 0,11.96 0,-8.32 8.08,0 c 2.39998,0 3.08,0.84 3.08,2.84 l 0,2.64 c 0,2 -0.68002,2.84 -3.08,2.84 l -8.08,0"
       id="path4566"
       class="color1"
       style="fill:#ffffff;fill-opacity:1;stroke:none;" />
    <path
       d="m 203.03829,27.360001 0,-3.76 -14.44,0 0,-8.4 12.11999,0 0,-3.64 -12.11999,0 0,-7.8400004 14.44,0 0,-3.71999998964856 -18.48001,0 0,27.36000038964856 18.48001,0"
       id="path4568"
       class="color1"
       style="fill:#ffffff;fill-opacity:1;stroke:none;" />
    <path
       d="m 229.91804,27.360001 0,-27.36000038964834 -4.03999,0 0,19.88000038964834 -0.2,0 L 213.35804,6.1035166e-7 l -3.88,0 0,27.36000038964834 4.04001,0 0,-19.6000004 0.2,0 12.28,19.6000004 3.91999,0"
       id="path4570"
       class="color1"
       style="fill:#ffffff;fill-opacity:1;stroke:none;" />
    <path
       d="m 255.5978,19.720001 -4.04001,-1.2 0,2.24 c 0,2 -0.64,2.84 -3.04,2.84 l -5.52,0 c -2.39999,0 -3.08,-0.84 -3.08,-2.84 l 0,-14.2000004 c 0,-2 0.68001,-2.84 3.08,-2.84 l 5.52,0 c 2.4,0 3.04,0.84 3.04,2.84 l 0,2 4.04001,-1.08 0,-1.64 c 0,-4.08 -2.16,-5.83999998964856 -6.56,-5.83999998964856 l -6.6,0 c -4.39999,0 -6.56,1.75999998964856 -6.56,5.83999998964856 l 0,15.6800004 c 0,4.12 2.16001,5.84 6.56,5.84 l 6.6,0 c 4.4,0 6.56,-1.72 6.56,-5.84 l 0,-1.8"
       id="path4572"
       class="color1"
       style="fill:#ffffff;fill-opacity:1;stroke:none;" />
    <path
       d="m 281.95756,27.360001 0,-15.72 -16.48,0 0,-11.64000038964856 -4.04,0 0,27.36000038964856 4.04,0 0,-12.08 12.44,0 0,12.08 4.04,0"
       id="path4574"
       class="color2"
       style="fill:#fe8a00;fill-opacity:1;stroke:none;" />
    <path
       d="m 293.23732,3.7200006 9.72,0 0,17.0400004 c 0,2 -0.64001,2.84 -3.04,2.84 l -5.04,0 c -2.4,0 -3.04,-0.84 -3.04,-2.84 l 0,-3.12 -4.04,1.16 0,2.72 c 0,4.12 2.16,5.84 6.56,5.84 l 6.08,0 c 4.39999,0 6.56,-1.72 6.56,-5.84 l 0,-21.52000038964834 -13.76,0 0,3.71999998964834"
       id="path4576"
       class="color1"
       style="fill:#ffffff;fill-opacity:1;stroke:none;" />
    <path
       d="m 318.03707,19.720001 -4.04,1.08 0,0.72 c 0,4.12 2.16001,5.84 6.56,5.84 l 6.08,0 c 4.4,0 6.76,-1.84 6.76,-5.92 l 0,-3.88 c 0,-4.12 -1.96,-5.92 -6.36,-5.92 l -5.96,0 c -2.4,0 -3.04,-0.84 -3.04,-2.8400004 l 0,-2.24 c 0,-2 0.64,-2.84 3.04,-2.84 l 5.24,0 c 2.4,0 3.04,0.84 3.04,2.84 l 0,1 4.04,-1.08 0,-0.64 c 0,-4.08 -2.16,-5.83999998964879 -6.56,-5.83999998964879 l -6.08,0 c -4.39999,0 -6.76,1.83999998964879 -6.76,5.95999998964879 l 0,3.36 c 0,4.0800004 1.96001,5.9600004 6.36,5.9600004 l 5.96,0 c 2.4,0 3.04,0.84 3.04,2.84 l 0,2.64 c 0,2 -0.64,2.84 -3.04,2.84 l -5.24,0 c -2.4,0 -3.04,-0.84 -3.04,-2.84 l 0,-1.04"
       id="path4578"
       class="color1"
       style="fill:#ffffff;fill-opacity:1;stroke:none;" />
    <g
       transform="matrix(0.50973179,0,0,0.50973179,45.69071,-537.5172)"
       id="g4524">
      <path
         d="m 80.941588,1056.4717 -1.213018,5.8901 c -1.13406,0.3559 -2.235382,0.8586 -3.275134,1.3966 l -5.094656,-3.3397 -6.974828,6.9831 3.335787,5.1007 c -0.550002,1.052 -0.971664,2.1293 -1.334315,3.279 l -6.004417,1.2145 0,9.8979 6.004417,1.2752 c 0.358254,1.1258 0.735816,2.2468 1.273665,3.279 l -3.275137,5.0401 6.974828,7.0437 5.094656,-3.3397 c 1.016592,0.5275 2.107534,0.922 3.21449,1.2752 l 1.273662,6.0115 9.886071,0 1.213,-6.0115 c 1.149542,-0.3632 2.222852,-0.7854 3.275142,-1.3358 l 5.094679,3.4003 6.97483,-7.0437 -3.33579,-5.0401 c 0.55491,-1.0618 1.0305,-2.1791 1.39496,-3.3397 l 5.94377,-1.2145 0,-9.8979 -6.00441,-1.2145 c -0.36266,-1.1497 -0.78432,-2.227 -1.33432,-3.279 l 3.33579,-5.1007 -6.97483,-6.9831 -5.094679,3.4006 c -1.05859,-0.5527 -2.11817,-1.0945 -3.275142,-1.4575 l -1.213,-5.8901 -9.886071,0 z m 4.912709,19.0064 c 3.587482,0 6.489622,2.9055 6.489622,6.4971 0,3.5919 -2.90214,6.4975 -6.489622,6.4975 -3.587494,0 -6.489629,-2.9056 -6.489629,-6.4975 0,-3.5916 2.902135,-6.4971 6.489629,-6.4971 z"
         id="gear"
         class="color2"
         style="fill:#fe8a00;fill-opacity:1;stroke:none" />
    </g>
  </g>
</svg>
