<?xml version="1.0" encoding="UTF-8" standalone="no"?>
<!-- Created with Inkscape (http://www.inkscape.org/) -->

<svg
   xmlns:dc="http://purl.org/dc/elements/1.1/"
   xmlns:cc="http://creativecommons.org/ns#"
   xmlns:rdf="http://www.w3.org/1999/02/22-rdf-syntax-ns#"
   xmlns:svg="http://www.w3.org/2000/svg"
   xmlns="http://www.w3.org/2000/svg"
   version="1.1"
   width="100%"
   height="100%"
   viewBox="0 0 259 194"
   onload="init(evt)"
   id="svg4211">
  <defs
     id="defs4213" />
  <metadata
     id="metadata4216">
    <rdf:RDF>
      <cc:Work
         rdf:about="">
        <dc:format>image/svg+xml</dc:format>
        <dc:type
           rdf:resource="http://purl.org/dc/dcmitype/StillImage" />
        <dc:title></dc:title>
      </cc:Work>
    </rdf:RDF>
  </metadata>

  <script><![CDATA[

  var params = window.location.href.split('?');
  if ( params.length > 1) params = params[1].split('=');
  var strokeColor = params.length && params[0] == 'stroke' ? params[1] : 'ffffff';

	function init (evt) {
		if ( window.svgDocument == null ) {
			svgDocument = evt.target.ownerDocument;
		}

    svgDocument.getElementById('rect3844').style.stroke = '#' + strokeColor;

		addRotateTransform('gear1', 10, 1);
		addRotateTransform('gear2', 10, -1);
	}

	function addRotateTransform (id, speed, direction) {
		var el = svgDocument.getElementById(id);
		var transform = svgDocument.createElementNS('http://www.w3.org/2000/svg', "animateTransform");

		var bb = el.getBBox();
		var cx = bb.x + bb.width/2;
		var cy = bb.y + bb.height/2;

		transform.setAttributeNS(null, 'attributeName', 'transform');
		transform.setAttributeNS(null, 'attributeType', 'XML');
		transform.setAttributeNS(null, 'type', 'rotate');
		transform.setAttributeNS(null, 'dur', speed + 's');
		transform.setAttributeNS(null, 'repeatCount', 'indefinite');
		transform.setAttributeNS(null, 'from', '0 ' + cx + ' ' + cy);
		transform.setAttributeNS(null, 'to', 360*direction + ' ' + cx + ' ' + cy);

		el.appendChild(transform);
		transform.beginElement();
	}
  ]]></script>
  <g
     transform="translate(-893.10242,-1237.9375)"
     id="layer1">
    <path
       d="m 941.60811,1252.4175 c -1.58394,0.4015 -3.21755,7.3867 -4.21898,12.5021 -2.64914,0.7883 -5.19972,1.8419 -7.58639,3.1352 -4.32508,-2.9089 -10.40167,-6.6806 -11.80539,-5.8446 l -10.10226,10.1022 c -0.83595,1.4037 2.8971,7.519 5.80592,11.8441 -1.29331,2.3867 -2.30815,4.8986 -3.09651,7.5477 -5.11541,1.0014 -12.10056,2.6351 -12.50208,4.219 l 0,14.3213 c 0.40152,1.5839 7.38667,3.2175 12.50208,4.2189 0.78872,2.6489 1.80293,5.2001 3.09651,7.5864 -2.90882,4.3251 -6.64187,10.4018 -5.80592,11.8054 l 10.10226,10.1023 c 1.40415,0.8362 7.48005,-2.8967 11.80539,-5.8059 2.38453,1.2915 4.93997,2.3089 7.58639,3.0965 1.00142,5.1154 2.635,12.1006 4.21898,12.5021 l 14.3213,0 c 1.58395,-0.4015 3.21755,-7.3867 4.21896,-12.5021 2.6464,-0.7876 5.16317,-1.805 7.54768,-3.0965 4.32537,2.9092 10.43995,6.6421 11.84405,5.8059 l 10.10233,-10.1023 c 0.83595,-1.4036 -2.93584,-7.4803 -5.84462,-11.8054 1.29356,-2.3863 2.34647,-4.9375 3.1352,-7.5864 5.1154,-1.0014 12.10057,-2.635 12.50208,-4.2189 l 0,-14.3213 c -0.40151,-1.5839 -7.38672,-3.2176 -12.50208,-4.219 -0.78839,-2.6491 -1.84191,-5.161 -3.1352,-7.5477 2.90878,-4.3251 6.68057,-10.4404 5.84462,-11.8441 l -10.10233,-10.1022 c -1.40365,-0.836 -7.51895,2.9357 -11.84405,5.8446 -2.38668,-1.2933 -4.89853,-2.3469 -7.54768,-3.1352 -1.00141,-5.1154 -2.63503,-12.1006 -4.21896,-12.5021 l -14.3213,0 z m 7.16064,39.7125 c 6.04629,0 10.95383,4.9075 10.95383,10.9538 0,6.0463 -4.90754,10.9539 -10.95383,10.9539 -6.04628,0 -10.95382,-4.9076 -10.95382,-10.9539 0,-6.0463 4.90754,-10.9538 10.95382,-10.9538 z"
       id="gear1"
       style="fill:#6ccef0;fill-opacity:1;stroke:none" />
    <path
       d="m 1089.7849,1321.7104 c -1.584,0.4015 -3.2176,7.3866 -4.219,12.5021 -2.6491,0.7883 -5.1997,1.8419 -7.5864,3.1351 -4.3251,-2.9088 -10.4017,-6.6805 -11.8054,-5.8446 l -10.1022,10.1023 c -0.836,1.4037 2.8971,7.519 5.8059,11.8441 -1.2933,2.3867 -2.3082,4.8985 -3.0965,7.5477 -5.1154,1.0014 -12.1006,2.6351 -12.5021,4.219 l 0,14.3213 c 0.4015,1.5839 7.3867,3.2175 12.5021,4.2189 0.7887,2.6489 1.8029,5.2 3.0965,7.5864 -2.9088,4.3251 -6.6419,10.4017 -5.8059,11.8054 l 10.1022,10.1023 c 1.4042,0.8362 7.4801,-2.8967 11.8054,-5.8059 2.3845,1.2915 4.94,2.3089 7.5864,3.0965 1.0014,5.1154 2.635,12.1005 4.219,12.502 l 14.3213,0 c 1.5839,-0.4015 3.2175,-7.3866 4.2189,-12.502 2.6464,-0.7876 5.1632,-1.805 7.5477,-3.0965 4.3254,2.9092 10.44,6.6421 11.8441,5.8059 l 10.1023,-10.1023 c 0.836,-1.4037 -2.9358,-7.4803 -5.8446,-11.8054 1.2935,-2.3864 2.3465,-4.9375 3.1352,-7.5864 5.1154,-1.0014 12.1006,-2.635 12.5021,-4.2189 l 0,-14.3213 c -0.4015,-1.5839 -7.3868,-3.2176 -12.5021,-4.219 -0.7884,-2.6492 -1.8419,-5.161 -3.1352,-7.5477 2.9088,-4.3251 6.6806,-10.4404 5.8446,-11.8441 l -10.1023,-10.1023 c -1.4037,-0.8359 -7.519,2.9358 -11.8441,5.8446 -2.3867,-1.2932 -4.8985,-2.3468 -7.5477,-3.1351 -1.0014,-5.1155 -2.635,-12.1006 -4.2189,-12.5021 l -14.3213,0 z m 7.1606,39.7125 c 6.0463,0 10.9539,4.9075 10.9539,10.9538 0,6.0463 -4.9076,10.9538 -10.9539,10.9538 -6.0463,0 -10.9538,-4.9075 -10.9538,-10.9538 0,-6.0463 4.9075,-10.9538 10.9538,-10.9538 z"
       id="gear2"
       style="fill:#6ccef0;fill-opacity:1;stroke:none" />
    <path
       d="m 922.15916,1245.9381 c 17.43462,0 29.78125,14.2625 29.78125,33.2187 l 0,118.125 c 0,15.0819 12.13687,27.2188 27.21875,27.2188 62.19794,0 81.89584,0 144.09374,0 -17.4346,0 -29.7812,-14.2625 -29.7812,-33.2188 l 0,-118.125 c 0,-15.0819 -12.1369,-27.2187 -27.2188,-27.2187 -62.1979,0 -81.89582,0 -144.09374,0 z"
       id="rect3844"
       style="fill:#f20044;fill-opacity:1;fill-rule:nonzero;stroke:#ffffff;stroke-width:6;stroke-linecap:butt;stroke-linejoin:round;stroke-miterlimit:4;stroke-opacity:1;stroke-dashoffset:0" />
    <g
       transform="translate(889.784,1232.677)"
       id="g4129">
      <g
         id="text3872"
         style="font-size:153.65200806px;font-style:normal;font-variant:normal;font-weight:300;font-stretch:normal;text-align:center;line-height:100%;letter-spacing:0px;word-spacing:0px;writing-mode:lr-tb;text-anchor:middle;fill:#ffffff;fill-opacity:0.52488691;stroke:none;font-family:CPMono_v07;-inkscape-font-specification:CPMono_v07 Light">
        <path
           d="m 111.18028,129.74381 -15.518851,4.1486 0,2.76574 c 0,15.82614 8.297221,22.43319 25.198931,22.43319 l 23.3551,0 c 16.90171,0 25.96719,-7.06801 25.96719,-22.7405 l 0,-14.90424 c 0,-15.82614 -7.52896,-22.7405 -24.43067,-22.7405 l -22.89415,0 c -9.21911,0 -11.67755,-3.2267 -11.67755,-10.909293 l 0,-8.604512 c 0,-7.682593 2.45844,-10.909293 11.67755,-10.909293 l 20.12842,0 c 9.21911,0 11.67755,3.2267 11.67755,10.909293 l 0,3.8413 15.51885,-4.148604 0,-2.458432 c 0,-15.672489 -8.29722,-22.433193 -25.19893,-22.433193 l -23.3551,0 c -16.90171,0 -25.967191,7.068008 -25.967191,22.894149 l 0,12.906768 c 0,15.672487 7.528961,22.894147 24.430671,22.894147 l 22.89415,0 c 9.21911,0 11.67755,3.2267 11.67755,10.9093 l 0,10.14103 c 0,7.68259 -2.45844,10.90929 -11.67755,10.90929 l -20.12842,0 c -9.21911,0 -11.67755,-3.2267 -11.67755,-10.90929 l 0,-3.99495"
           id="path4074" />
      </g>
      <g
         id="text3868"
         style="font-size:153.65200806px;font-style:normal;font-variant:normal;font-weight:300;font-stretch:normal;text-align:center;line-height:100%;letter-spacing:0px;word-spacing:0px;writing-mode:lr-tb;text-anchor:middle;fill:#000000;fill-opacity:0.19607843;stroke:none;font-family:CPMono_v07;-inkscape-font-specification:CPMono_v07 Light">
        <path
           d="m 111.18028,121.74381 -15.518851,4.1486 0,2.76574 c 0,15.82614 8.297221,22.43319 25.198931,22.43319 l 23.3551,0 c 16.90171,0 25.96719,-7.06801 25.96719,-22.7405 l 0,-14.90424 c 0,-15.826144 -7.52896,-22.7405 -24.43067,-22.7405 l -22.89415,0 c -9.21911,0 -11.67755,-3.2267 -11.67755,-10.909293 l 0,-8.604512 c 0,-7.682593 2.45844,-10.909293 11.67755,-10.909293 l 20.12842,0 c 9.21911,0 11.67755,3.2267 11.67755,10.909293 l 0,3.8413 15.51885,-4.148604 0,-2.458432 c 0,-15.672489 -8.29722,-22.433193 -25.19893,-22.433193 l -23.3551,0 c -16.90171,0 -25.967191,7.068008 -25.967191,22.894149 l 0,12.906768 c 0,15.67249 7.528961,22.894147 24.430671,22.894147 l 22.89415,0 c 9.21911,0 11.67755,3.2267 11.67755,10.9093 l 0,10.14103 c 0,7.68259 -2.45844,10.90929 -11.67755,10.90929 l -20.12842,0 c -9.21911,0 -11.67755,-3.2267 -11.67755,-10.90929 l 0,-3.99495"
           id="path4071" />
      </g>
      <g
         id="text3840"
         style="font-size:153.65200806px;font-style:normal;font-variant:normal;font-weight:300;font-stretch:normal;text-align:center;line-height:100%;letter-spacing:0px;word-spacing:0px;writing-mode:lr-tb;text-anchor:middle;fill:#ffffff;fill-opacity:1;stroke:none;font-family:CPMono_v07;-inkscape-font-specification:CPMono_v07 Light">
        <path
           d="m 111.18028,125.74381 -15.518851,4.1486 0,2.76574 c 0,15.82614 8.297221,22.43319 25.198931,22.43319 l 23.3551,0 c 16.90171,0 25.96719,-7.06801 25.96719,-22.7405 l 0,-14.90424 c 0,-15.82614 -7.52896,-22.7405 -24.43067,-22.7405 l -22.89415,0 c -9.21911,0 -11.67755,-3.2267 -11.67755,-10.909293 l 0,-8.604512 c 0,-7.682593 2.45844,-10.909293 11.67755,-10.909293 l 20.12842,0 c 9.21911,0 11.67755,3.2267 11.67755,10.909293 l 0,3.8413 15.51885,-4.148604 0,-2.458432 c 0,-15.672489 -8.29722,-22.433193 -25.19893,-22.433193 l -23.3551,0 c -16.90171,0 -25.967191,7.068008 -25.967191,22.894149 l 0,12.906768 c 0,15.672487 7.528961,22.894147 24.430671,22.894147 l 22.89415,0 c 9.21911,0 11.67755,3.2267 11.67755,10.9093 l 0,10.14103 c 0,7.68259 -2.45844,10.90929 -11.67755,10.90929 l -20.12842,0 c -9.21911,0 -11.67755,-3.2267 -11.67755,-10.90929 l 0,-3.99495"
           id="path4068" />
      </g>
    </g>
  </g>
</svg>
